<?xml version="1.0" encoding="iso-8859-1"?>
<!-- Generator: Adobe Illustrator 18.0.0, SVG Export Plug-In . SVG Version: 6.00 Build 0)  -->
<!DOCTYPE svg PUBLIC "-//W3C//DTD SVG 1.1//EN" "http://www.w3.org/Graphics/SVG/1.1/DTD/svg11.dtd">
<svg version="1.1" id="Capa_1" xmlns="http://www.w3.org/2000/svg" xmlns:xlink="http://www.w3.org/1999/xlink" x="0px" y="0px"
	 viewBox="0 0 60 60" style="enable-background:new 0 0 60 60;" xml:space="preserve">
<g>
	<path style="fill:#26B99A;" d="M42.542,26H13.458C12.101,26,11,24.899,11,23.542V8.458C11,7.101,12.101,6,13.458,6h29.083
		C43.899,6,45,7.101,45,8.458v15.083C45,24.899,43.899,26,42.542,26z"/>
	<path style="fill:#7383BF;" d="M52.542,54H13.458C12.101,54,11,52.899,11,51.542V36.458C11,35.101,12.101,34,13.458,34h39.083
		C53.899,34,55,35.101,55,36.458v15.083C55,52.899,53.899,54,52.542,54z"/>
	<path style="fill:#556080;" d="M6,60c-0.552,0-1-0.448-1-1V1c0-0.552,0.448-1,1-1s1,0.448,1,1v58C7,59.552,6.552,60,6,60z"/>
</g>
<g>
</g>
<g>
</g>
<g>
</g>
<g>
</g>
<g>
</g>
<g>
</g>
<g>
</g>
<g>
</g>
<g>
</g>
<g>
</g>
<g>
</g>
<g>
</g>
<g>
</g>
<g>
</g>
<g>
</g>
</svg>
