<?xml version="1.0" encoding="iso-8859-1"?>
<!-- Generator: Adobe Illustrator 18.0.0, SVG Export Plug-In . SVG Version: 6.00 Build 0)  -->
<!DOCTYPE svg PUBLIC "-//W3C//DTD SVG 1.1//EN" "http://www.w3.org/Graphics/SVG/1.1/DTD/svg11.dtd">
<svg version="1.1" id="Capa_1" xmlns="http://www.w3.org/2000/svg" xmlns:xlink="http://www.w3.org/1999/xlink" x="0px" y="0px"
	 viewBox="0 0 60 60" style="enable-background:new 0 0 60 60;" xml:space="preserve">
<g>
	<path style="fill:#7383BF;" d="M7.458,54h39.083C47.899,54,49,52.899,49,51.542V36.458C49,35.101,47.899,34,46.542,34H7.458
		C6.101,34,5,35.101,5,36.458v15.083C5,52.899,6.101,54,7.458,54z"/>
	<path style="fill:#556080;" d="M54,60c-0.552,0-1-0.448-1-1V1c0-0.552,0.448-1,1-1s1,0.448,1,1v58C55,59.552,54.552,60,54,60z"/>
	<path style="fill:#26B99A;" d="M46.542,26H17.458C16.101,26,15,24.899,15,23.542V8.458C15,7.101,16.101,6,17.458,6h29.083
		C47.899,6,49,7.101,49,8.458v15.083C49,24.899,47.899,26,46.542,26z"/>
</g>
<g>
</g>
<g>
</g>
<g>
</g>
<g>
</g>
<g>
</g>
<g>
</g>
<g>
</g>
<g>
</g>
<g>
</g>
<g>
</g>
<g>
</g>
<g>
</g>
<g>
</g>
<g>
</g>
<g>
</g>
</svg>
