<?xml version="1.0" encoding="iso-8859-1"?>
<!-- Generator: Adobe Illustrator 16.0.0, SVG Export Plug-In . SVG Version: 6.00 Build 0)  -->
<!DOCTYPE svg PUBLIC "-//W3C//DTD SVG 1.1//EN" "http://www.w3.org/Graphics/SVG/1.1/DTD/svg11.dtd">
<svg version="1.1" id="Capa_1" xmlns="http://www.w3.org/2000/svg" xmlns:xlink="http://www.w3.org/1999/xlink" x="0px" y="0px"
	 width="309.192px" height="309.191px" viewBox="0 0 309.192 309.191" style="enable-background:new 0 0 309.192 309.191;"
	 xml:space="preserve">
<g>
	<g>
		<path d="M77.274,257.997c-8.622,0-14.832-1.118-18.628-3.364c-3.792-2.246-5.688-6.181-5.688-11.812
			c0-3.338,1.604-9.092,4.823-17.255l4.519-11.554h72.033l6.597,17.07l2.138,5.389c2.133,4.473,3.199,8.079,3.199,10.832
			c0,3.101-1.266,5.664-3.797,7.673c-2.534,2.015-9.028,3.021-19.488,3.021v19.143h116.073v-19.143
			c-5.399,0-11.031-1.813-16.896-5.432c-5.864-3.628-12.425-14.407-19.67-32.347L129.368,39.121h-20.297L37.083,220.397
			c-10.001,25.07-22.368,37.6-37.083,37.6v19.143h77.274V257.997z M97.369,124.329l29.073,69.849H69.683L97.369,124.329z"/>
		<polygon points="309.192,78.682 282.271,32.052 255.34,78.682 277.014,78.682 277.014,230.512 255.34,230.512 282.271,277.14 
			309.192,230.512 287.814,230.512 287.814,78.682 		"/>
	</g>
</g>
<g>
</g>
<g>
</g>
<g>
</g>
<g>
</g>
<g>
</g>
<g>
</g>
<g>
</g>
<g>
</g>
<g>
</g>
<g>
</g>
<g>
</g>
<g>
</g>
<g>
</g>
<g>
</g>
<g>
</g>
</svg>
