<?xml version="1.0" encoding="iso-8859-1"?>
<!-- Generator: Adobe Illustrator 18.0.0, SVG Export Plug-In . SVG Version: 6.00 Build 0)  -->
<!DOCTYPE svg PUBLIC "-//W3C//DTD SVG 1.1//EN" "http://www.w3.org/Graphics/SVG/1.1/DTD/svg11.dtd">
<svg version="1.1" id="Capa_1" xmlns="http://www.w3.org/2000/svg" xmlns:xlink="http://www.w3.org/1999/xlink" x="0px" y="0px"
	 viewBox="0 0 60 60" style="enable-background:new 0 0 60 60;" xml:space="preserve">
<g>
	<path style="fill:#26B99A;" d="M34,17.458v29.083C34,47.899,35.101,49,36.458,49h15.083C52.899,49,54,47.899,54,46.542V17.458
		C54,16.101,52.899,15,51.542,15H36.458C35.101,15,34,16.101,34,17.458z"/>
	<path style="fill:#7383BF;" d="M6,7.458v39.083C6,47.899,7.101,49,8.458,49h15.083C24.899,49,26,47.899,26,46.542V7.458
		C26,6.101,24.899,5,23.542,5H8.458C7.101,5,6,6.101,6,7.458z"/>
	<path style="fill:#556080;" d="M59,55H1c-0.553,0-1-0.448-1-1s0.447-1,1-1h58c0.553,0,1,0.448,1,1S59.553,55,59,55z"/>
</g>
<g>
</g>
<g>
</g>
<g>
</g>
<g>
</g>
<g>
</g>
<g>
</g>
<g>
</g>
<g>
</g>
<g>
</g>
<g>
</g>
<g>
</g>
<g>
</g>
<g>
</g>
<g>
</g>
<g>
</g>
</svg>
