<?xml version="1.0" encoding="iso-8859-1"?>
<!-- Generator: Adobe Illustrator 18.0.0, SVG Export Plug-In . SVG Version: 6.00 Build 0)  -->
<!DOCTYPE svg PUBLIC "-//W3C//DTD SVG 1.1//EN" "http://www.w3.org/Graphics/SVG/1.1/DTD/svg11.dtd">
<svg version="1.1" id="Capa_1" xmlns="http://www.w3.org/2000/svg" xmlns:xlink="http://www.w3.org/1999/xlink" x="0px" y="0px"
	 viewBox="0 0 60 60" style="enable-background:new 0 0 60 60;" xml:space="preserve">
<g>
	<path style="fill:#26B99A;" d="M34,42.542V13.458C34,12.101,35.101,11,36.458,11h15.083C52.899,11,54,12.101,54,13.458v29.083
		C54,43.899,52.899,45,51.542,45H36.458C35.101,45,34,43.899,34,42.542z"/>
	<path style="fill:#7383BF;" d="M6,52.542V13.458C6,12.101,7.101,11,8.458,11h15.083C24.899,11,26,12.101,26,13.458v39.083
		C26,53.899,24.899,55,23.542,55H8.458C7.101,55,6,53.899,6,52.542z"/>
	<path style="fill:#556080;" d="M59,7H1C0.448,7,0,6.552,0,6s0.448-1,1-1h58c0.552,0,1,0.448,1,1S59.552,7,59,7z"/>
</g>
<g>
</g>
<g>
</g>
<g>
</g>
<g>
</g>
<g>
</g>
<g>
</g>
<g>
</g>
<g>
</g>
<g>
</g>
<g>
</g>
<g>
</g>
<g>
</g>
<g>
</g>
<g>
</g>
<g>
</g>
</svg>
